<?xml version="1.0" encoding="utf-8"?>
<!-- Generator: Adobe Illustrator 16.0.0, SVG Export Plug-In . SVG Version: 6.00 Build 0)  -->
<!DOCTYPE svg PUBLIC "-//W3C//DTD SVG 1.1//EN" "http://www.w3.org/Graphics/SVG/1.1/DTD/svg11.dtd">
<svg version="1.1" id="Calque_1" xmlns="http://www.w3.org/2000/svg" xmlns:xlink="http://www.w3.org/1999/xlink" x="0px" y="0px"
	 width="630px" height="585px" viewBox="0 0 630 585" enable-background="new 0 0 630 585" xml:space="preserve">
<g>
	<path fill="#E8F0F9" d="M630,501.319c-51.578,5.381-105.072,19.524-152.689,48.944c-121.024,74.764-310.692,10.761-394.358-24.061
		c-63.929-26.596-97.123-91.736-77.181-152.879c0.279-0.861,0.57-1.727,0.873-2.588c12.543-36.34,37.303-64.777,67.965-79.849
		c26.727-13.141,106.89-39.889,83.105,26.708c7.172-21.769,458.949-53.821,472.282-44.148C629.997,332.999,630,456.579,630,501.319z
		"/>
	<path fill="#2884F6" d="M243.764,477.581c-142.51-12.412-199.266-125.082-109.743-240.217c1.709-2.025,3.433-4.039,5.17-6.039
		c60.259-69.489,94.784-84.071,224.754-112.688C474.189,94.362,565.538,31.772,629.987,0c0,5.542,0.011,474.999,0.01,535.716
		c-133.498-112.717-253.243-69.795-355.369-58.535C264.377,478.331,254.035,478.464,243.764,477.581L243.764,477.581z"/>
</g>
</svg>
